:SAMPLES-PER-SECOND 30
:FULLY-SPECIFIED
:DEGREES
447
root  -3.34016 41.0161 -0.0644568 6.59265 -83.6112 -5.05475
RightUpLeg  3.42226 -1.52979 -0.712493
RightLeg  -7.23263 -25.9721 4.36806
RightFoot  2.43279 -0.238787 2.11139
RightToes  -3.1126e-008 1.75238e-005 3.56266e-009
Spine  7.69733 1.8767 -8.36288
Spine1  -11.5092 0.85074 10.044
HEad  5.8952 -2.41441 -0.073943
LeftShoulder1  0.29168 2.29003 -17.3392
LeftArm  -40.1372 -31.4374 -30.2405
LeftForeArm  85.8859 -80.0755 -74.0514
LeftHand  -0.475991 -4.5471 5.83593
RightShoulder  1.26198 1.13729 20.9292
RightArm  -11.0182 -23.879 43.1419
RightForeArm  45.0711 76.0553 46.2994
RightHand  -0.0353357 7.63955 -0.68286
LeftUpLeg  0.348549 1.40138 3.69259
LeftLeg  -2.64684 10.9925 -0.693719
LeftFoot  1.36369 0.448182 -4.10241
LeftToes  4.78049e-008 1.46235e-008 1.34219e-009
448
root  -3.4416 41.016 -0.054727 7.17712 -83.8525 -5.5416
RightUpLeg  3.55791 -1.47191 -0.66238
RightLeg  -7.45583 -25.7684 4.4193
RightFoot  2.42948 -0.234982 2.05753
RightToes  -3.1126e-008 1.75238e-005 3.56266e-009
Spine  7.37228 1.87795 -7.82281
Spine1  -11.3895 0.937473 9.28213
HEad  5.77325 -2.81638 0.16902
LeftShoulder1  0.285522 2.31064 -17.2238
LeftArm  -40.2369 -29.4517 -30.0691
LeftForeArm  84.8052 -80.0237 -73.8523
LeftHand  -0.563285 -4.77706 6.72596
RightShoulder  1.28103 1.18366 21.0752
RightArm  -11.5691 -23.196 42.4348
RightForeArm  46.5598 76.2854 47.1667
RightHand  0.000466703 7.72946 -0.366422
LeftUpLeg  0.508334 1.42912 3.72381
LeftLeg  -2.77358 11.1981 -0.714729
LeftFoot  1.2752 0.442583 -4.06573
LeftToes  4.78049e-008 1.46235e-008 1.34219e-009
449
root  -3.51472 41.0163 -0.0340279 7.85834 -84.0065 -6.17191
RightUpLeg  3.62531 -1.46688 -0.649082
RightLeg  -7.49304 -25.6018 4.43654
RightFoot  2.40961 -0.241188 2.13761
RightToes  -3.1126e-008 1.75238e-005 3.56266e-009
Spine  7.43672 1.83918 -7.3214
Spine1  -11.8089 0.981985 8.70555
HEad  6.1101 -3.1457 0.446777
LeftShoulder1  0.265134 2.3913 -17.1189
LeftArm  -39.8463 -27.3981 -30.5279
LeftForeArm  82.7792 -79.9132 -71.8124
LeftHand  -0.536776 -4.51729 6.56184
RightShoulder  1.26786 1.14903 20.9902
RightArm  -11.9416 -21.3272 41.5935
RightForeArm  45.5955 76.1286 46.5451
RightHand  -0.0146097 7.94354 -0.502012
LeftUpLeg  0.527623 1.40749 3.72617
LeftLeg  -2.6313 11.3908 -0.629965
LeftFoot  1.08684 0.441445 -4.11516
LeftToes  4.78049e-008 1.46235e-008 1.34219e-009
450
root  -3.6002 41.018 -0.00471103 8.83234 -84.5417 -7.16769
RightUpLeg  3.72093 -1.42043 -0.634834
RightLeg  -7.45083 -25.1054 4.31321
RightFoot  2.40129 -0.249444 2.2053
RightToes  -3.1126e-008 1.75238e-005 3.56266e-009
Spine  7.2283 2.00428 -6.42948
Spine1  -11.8318 1.26321 7.5783
HEad  6.07872 -3.18632 0.808754
LeftShoulder1  0.289672 2.28049 -16.9526
LeftArm  -38.9891 -25.3747 -30.9045
LeftForeArm  79.6578 -79.6971 -67.6021
LeftHand  -0.631457 -4.99068 7.35856
RightShoulder  1.25739 1.11568 20.9589
RightArm  -13.1647 -18.9401 40.7556
RightForeArm  44.8232 76.1088 46.7307
RightHand  -0.0249524 7.71697 -0.590762
LeftUpLeg  0.803781 1.50654 3.76019
LeftLeg  -2.68786 11.8226 -0.71071
LeftFoot  0.980577 0.433925 -4.07505
LeftToes  4.78049e-008 1.46235e-008 1.34219e-009
451
root  -3.70094 41.0214 0.0459103 9.33588 -85.3687 -7.7829
RightUpLeg  3.84626 -1.4574 -0.759783
RightLeg  -7.22437 -24.2414 4.04506
RightFoot  2.33591 -0.263878 2.33239
RightToes  -3.1126e-008 1.75238e-005 3.56266e-009
Spine  7.17373 2.28951 -5.81605
Spine1  -12.0046 1.62383 6.85758
HEad  6.76042 -3.26312 0.799757
LeftShoulder1  0.35712 1.99709 -16.9821
LeftArm  -37.8585 -22.7545 -31.1961
LeftForeArm  78.7455 -79.613 -66.1531
LeftHand  -0.522159 -4.252 6.56528
RightShoulder  1.30659 1.3153 20.8407
RightArm  -14.8328 -15.678 39.2433
RightForeArm  43.1011 75.709 44.9874
RightHand  -0.0150889 7.60433 -0.502865
LeftUpLeg  1.4854 1.48003 3.62587
LeftLeg  -3.24095 12.6639 -0.874334
LeftFoot  1.07313 0.412837 -3.8558
LeftToes  4.78049e-008 1.46235e-008 1.34219e-009
